<svg xmlns="http://www.w3.org/2000/svg">
  <symbol id="folder" viewBox="0 0 24 24"><path d="M3 7.5A2.5 2.5 0 0 1 5.5 5H10l2 2h6.5A2.5 2.5 0 0 1 21 9.5v7A2.5 2.5 0 0 1 18.5 19h-13A2.5 2.5 0 0 1 3 16.5z"/></symbol>
  <symbol id="sun" viewBox="0 0 24 24"><circle cx="12" cy="12" r="4"/><path d="M12 2v2.5M12 19.5V22M4.93 4.93 6.7 6.7M17.3 17.3l1.77 1.77M2 12h2.5M19.5 12H22M4.93 19.07 6.7 17.3M17.3 6.7l1.77-1.77"/></symbol>
  <symbol id="moon" viewBox="0 0 24 24"><path d="M20.5 14.5A8.5 8.5 0 0 1 9.5 3.5 7.5 7.5 0 1 0 20.5 14.5Z"/></symbol>
  <symbol id="command" viewBox="0 0 24 24"><path d="m4 17 6-10M14 7l6 10M7 13h10"/></symbol>
  <symbol id="settings" viewBox="0 0 24 24"><circle cx="12" cy="12" r="3"/><path d="M19.4 15a1.7 1.7 0 0 0 .34 1.88l.06.06a2 2 0 0 1-2.83 2.83l-.06-.06A1.7 1.7 0 0 0 15 19.4a1.7 1.7 0 0 0-1 .6 1.7 1.7 0 0 0-.4 1.1V21a2 2 0 0 1-4 0v-.09A1.7 1.7 0 0 0 8.6 19.4a1.7 1.7 0 0 0-1.88.34l-.06.06a2 2 0 0 1-2.83-2.83l.06-.06A1.7 1.7 0 0 0 4.6 15a1.7 1.7 0 0 0-.6-1 1.7 1.7 0 0 0-1.1-.4H3a2 2 0 0 1 0-4h.09A1.7 1.7 0 0 0 4.6 8.6a1.7 1.7 0 0 0-.34-1.88l-.06-.06a2 2 0 0 1 2.83-2.83l.06.06A1.7 1.7 0 0 0 9 4.6a1.7 1.7 0 0 0 1-.6 1.7 1.7 0 0 0 .4-1.1V3a2 2 0 0 1 4 0v.09A1.7 1.7 0 0 0 15.4 4.6a1.7 1.7 0 0 0 1.88-.34l.06-.06a2 2 0 0 1 2.83 2.83l-.06.06A1.7 1.7 0 0 0 19.4 9c.22.35.6.6 1 .6h.6a2 2 0 0 1 0 4h-.09a2 2 0 0 0-1.51 1.4Z"/></symbol>
</svg>
